<svg
            width="95"
            height="89"
            viewBox="0 0 95 89"
            fill="none"
            xmlns="http://www.w3.org/2000/svg"
          >
            <path
              d="M72.4 63.2v3.4h-4.9v10.2h-3.2V66.6h-4.8v-3.4h12.9zM62.7 35.7v7h-3.2v-7c0-3.7 2.8-6.8 6.4-6.8 3.6 0 6.5 3 6.5 6.8v7h-6.5v-3.3h3.2v-3.7a3.3 3.3 0 00-3.2-3.4 3.3 3.3 0 00-3.2 3.4zM69.1 53.3v-7.1h3.3v7c0 3.8-3 6.9-6.5 6.9-3.6 0-6.4-3-6.4-6.8v-7.1h6.4v3.4h-3.2v3.7a3.3 3.3 0 003.2 3.4 3.3 3.3 0 003.2-3.4z"
              fill="#fff"
            />
            <path
              d="M83.6 89H0V1h83.6v88zM3.5 85.3H80V4.7H3.5v80.6zM94 86a2.4 2.4 0 01-2.3 2.4 2.4 2.4 0 01-2.3-2.4 2.4 2.4 0 012.3-2.4A2.4 2.4 0 0194 86"
              fill="#fff"
            />
            <path
              d="M29 20.5l2.7 1.2a6.4 6.4 0 01-6.2 4.4 6.5 6.5 0 01-6.4-4.4 7 7 0 01-.4-2.7 7 7 0 012-5.1 6.3 6.3 0 014.7-2c1.3 0 2.6.4 3.8 1.1 1 .8 2 2 2.4 3.2L29 17.4c-.3-.7-.8-1.4-1.5-1.8-.6-.5-1.3-.7-2.1-.7a3.6 3.6 0 00-2.8 1.2c-.7.8-1.1 1.8-1 2.9-.1 1.1.3 2.2 1 3a3.7 3.7 0 002.8 1.1c.8 0 1.6-.2 2.2-.7.7-.5 1.2-1.2 1.5-2M33.4 19a7 7 0 012-5.1 6.5 6.5 0 014.8-2 6.5 6.5 0 016.3 4.4c.3.8.5 1.8.4 2.7a7 7 0 01-2 5.1 6.5 6.5 0 01-4.7 2 6.5 6.5 0 01-6.4-4.4 7 7 0 01-.4-2.7zm10.7 0a4 4 0 00-1.1-3 3.8 3.8 0 00-2.8-1.1 3.7 3.7 0 00-2.9 1.2c-.7.8-1.1 1.8-1 2.9a4 4 0 001 3 3.8 3.8 0 002.9 1.1A3.7 3.7 0 0043 22c.7-.8 1.1-1.8 1.1-2.9zM57.1 17.6h-7.7v2.8H57v-2.8zM72.4 25.8H69v-5.1h-6.4v5h-3.2V12.3h3.2v5.1H69v-5.1h3.3v13.6z"
              fill="#fff"
            />
          </svg>