<svg
            width="22"
            height="22"
            viewBox="0 0 22 22"
            fill="none"
            xmlns="http://www.w3.org/2000/svg"
          >
            <path
              d="M11.5 5.6a5.4 5.4 0 100 10.8 5.4 5.4 0 000-10.8zm0 9C9.5 14.5 8 13 8 11s1.5-3.5 3.5-3.5S15 9.1 15 11c0 2-1.6 3.5-3.5 3.5zm6.8-9.2c0-.7-.5-1.2-1.2-1.2s-1.3.5-1.3 1.2.6 1.3 1.3 1.3c.7 0 1.2-.6 1.2-1.3zM22 6.7c0-1.7-.5-3.2-1.7-4.4C19 1 17.5.7 15.8.6c-1.7-.1-7-.1-8.7 0C5.5.6 4 1 2.7 2.3 1.5 3.5 1.1 5 1 6.7v8.7c.1 1.6.5 3.1 1.7 4.4a6.4 6.4 0 004.4 1.7h8.7c1.7-.1 3.2-.5 4.4-1.7a6.4 6.4 0 001.7-4.4c.1-1.8.1-7 0-8.7zm-2.2 10.5c-.4 1-1.1 1.6-2 2-1.4.6-4.7.4-6.2.4s-4.8.2-6.2-.4c-1-.4-1.6-1-2-2-.6-1.4-.4-4.7-.4-6.2s-.2-4.8.4-6.2c.4-.9 1-1.6 2-2 1.4-.5 4.7-.4 6.2-.4s4.8-.1 6.2.4c.9.4 1.6 1.1 2 2 .5 1.4.4 4.7.4 6.2s.1 4.8-.4 6.2z"
              fill="#fff"
            ></path>
          </svg>