<svg
                width="18"
                height="18"
                viewBox="0 0 18 18"
                fill="none"
                xmlns="http://www.w3.org/2000/svg"
              >
                <path
                  d="M17.1108 13.0863V15.5165C17.1117 15.7421 17.0655 15.9654 16.9751 16.1722C16.8847 16.3789 16.7521 16.5644 16.5859 16.7169C16.4197 16.8695 16.2234 16.9856 16.0097 17.0579C15.796 17.1301 15.5695 17.157 15.3448 17.1367C12.8521 16.8658 10.4577 16.014 8.35391 14.6498C6.39664 13.406 4.73722 11.7466 3.49349 9.78934C2.12445 7.67603 1.27247 5.26995 1.00658 2.76603C0.986332 2.54202 1.01295 2.31625 1.08475 2.10309C1.15654 1.88993 1.27193 1.69406 1.42357 1.52794C1.57521 1.36182 1.75978 1.22909 1.96553 1.13821C2.17128 1.04733 2.39369 1.00029 2.61861 1.00008H5.04882C5.44196 0.996209 5.82308 1.13542 6.12116 1.39177C6.41925 1.64812 6.61394 2.00412 6.66896 2.3934C6.77154 3.17112 6.96176 3.93474 7.23601 4.6697C7.345 4.95964 7.36859 5.27475 7.30398 5.57769C7.23938 5.88063 7.08928 6.15869 6.87148 6.37894L5.84269 7.40773C6.99587 9.43578 8.67507 11.115 10.7031 12.2682L11.7319 11.2394C11.9522 11.0216 12.2302 10.8715 12.5332 10.8069C12.8361 10.7423 13.1512 10.7658 13.4411 10.8748C14.1761 11.1491 14.9397 11.3393 15.7174 11.4419C16.111 11.4974 16.4703 11.6956 16.7272 11.9988C16.9841 12.302 17.1206 12.689 17.1108 13.0863Z"
                  stroke="white"
                  stroke-width="1.25"
                  stroke-linecap="round"
                  stroke-linejoin="round"
                ></path>
              </svg>