<svg
            width="21"
            height="22"
            viewBox="0 0 21 22"
            fill="none"
            xmlns="http://www.w3.org/2000/svg"
          >
            <path
              d="M17.8 3.6c-2-2-4.5-3.1-7.3-3.1a10.4 10.4 0 00-9 15.6L0 21.5l5.5-1.4A10.5 10.5 0 0021 11c0-2.9-1.2-5.4-3.2-7.4zm-7.3 16c-1.6 0-3-.4-4.5-1.2l-.2-.2-3.3.9.9-3.2-.3-.4A8.7 8.7 0 0116.6 4.8a8.7 8.7 0 012.6 6.2c0 4.7-4 8.6-8.7 8.6zm4.7-6.5l-1.7-.8c-.3-.1-.5-.2-.7.1l-.8 1c-.1.2-.3.2-.5 0a7 7 0 01-3.6-3c-.3-.5.3-.4.8-1.4v-.5l-.8-2c-.3-.4-.4-.4-.6-.4h-.5c-.2 0-.5 0-.7.4-.2.2-.9.8-.9 2.1a5 5 0 001 2.7c.2.2 1.9 2.8 4.5 4 1.6.7 2.3.7 3.1.6.5 0 1.5-.6 1.8-1.2.2-.7.2-1.2.1-1.3l-.5-.3z"
              fill="#fff"
            ></path>
          </svg>