<svg width="279" height="762" viewBox="0 0 279 762" fill="none" xmlns="http://www.w3.org/2000/svg">
<ellipse cx="160" cy="726.5" rx="119" ry="35.5" fill="black"/>
<path d="M124.06 688.131C120.419 711.663 112.468 714.932 96.4783 721.695C90.8183 724.097 87.0532 723.54 86.2606 732.16C110.09 731.231 122.413 730.476 143.505 730.117C149.697 730.017 152.311 726.401 153.648 720.654C156.385 708.888 147.257 707.254 149.772 695.463C150.032 694.224 146.291 687.326 145.907 687.091" fill="white"/>
<path d="M200.786 692.676C197.553 713.508 189.974 722.921 198.074 730.327C219.128 729.522 199.312 730.116 217.989 729.794C223.513 729.708 225.754 726.525 226.943 721.422C229.42 711.019 221.296 709.582 223.513 699.129C223.736 698.076 220.429 691.933 220.082 691.698" fill="white"/>
<path d="M173.712 166.37L170.393 184.39C169.897 187.065 170.529 193.568 172.659 195.264L218.955 238.067C222.671 240.978 225.209 246.985 222.2 250.589L184.586 295.695C183.41 297.095 182.804 298.886 182.889 300.711L185.614 343.762C185.614 344.146 185.181 346.474 185.614 343.762L255.962 265.203C261.162 258.977 263.737 250.972 263.141 242.882C262.544 234.792 258.824 227.251 252.766 221.855L185.825 162.245C184.851 161.382 183.665 160.792 182.389 160.536C181.112 160.28 179.791 160.368 178.559 160.789C177.327 161.211 176.23 161.952 175.378 162.937C174.527 163.922 173.952 165.115 173.712 166.395" fill="white"/>
<path d="M176.375 242.551C201.343 316.193 222.695 656.128 225.222 697.605C225.254 698.139 225.177 698.673 224.994 699.176C224.812 699.678 224.529 700.138 224.162 700.526C223.795 700.915 223.353 701.225 222.862 701.436C222.371 701.647 221.842 701.755 221.308 701.754H201.492C200.556 701.756 199.649 701.423 198.938 700.814C198.227 700.205 197.758 699.361 197.615 698.435C192.017 662.147 130.017 371.208 127.02 340.752C126.302 333.52 79.7088 449.581 81.8143 458.065C90.8926 494.514 143.121 661.181 153.338 693.803C153.539 694.439 153.586 695.114 153.478 695.772C153.369 696.43 153.107 697.053 152.712 697.591C152.318 698.129 151.803 698.566 151.208 698.868C150.613 699.169 149.955 699.327 149.289 699.327H122.19C121.36 699.329 120.548 699.087 119.854 698.631C119.161 698.175 118.616 697.526 118.289 696.763C108.393 673.752 35.2338 502.837 28.6944 457.123C25.2885 433.294 100.603 236.829 100.603 236.829C100.603 236.829 173.675 234.451 176.375 242.551Z" fill="black"/>
<path d="M181.378 147.458L215.438 178.482C215.853 178.866 216.184 179.332 216.41 179.85C216.637 180.367 216.754 180.927 216.754 181.492C216.754 182.057 216.637 182.616 216.41 183.134C216.184 183.652 215.853 184.118 215.438 184.502L189.218 210.3C188.384 211.128 187.268 211.612 186.094 211.656C184.919 211.699 183.77 211.299 182.877 210.535L148.818 179.498C141.201 172.575 141.213 160.834 148.818 153.316L153.698 148.51C161.339 140.993 173.712 140.522 181.329 147.458" fill="#FF704C"/>
<path d="M0.0475923 432.019C2.63609 443.772 25.3876 393.005 33.6361 395.458C38.3424 396.87 43.1479 406.295 48.746 410.939C52.6968 414.209 49.1299 392.473 50.195 387.407C56.7839 356.073 92.6018 231.491 92.6018 231.491L88.9853 191.512L93.6049 145.984C93.6049 145.984 86.1739 149.092 85.2821 151.371C45.5011 255.716 40.2498 298.767 16.1483 380.732C7.3796 410.506 -0.695516 428.377 0.0475923 432.019Z" fill="white"/>
<path d="M53.7124 210.981L62.1096 165.23C63.3023 159.068 66.8138 153.598 71.9201 149.948C77.0264 146.298 83.3384 144.746 89.555 145.612L90.6573 145.773C93.6729 146.179 96.5741 147.195 99.1836 148.76C101.793 150.325 104.056 152.405 105.834 154.874C107.613 157.343 108.869 160.149 109.526 163.12C110.183 166.091 110.227 169.165 109.656 172.153L101.271 217.978C100.997 219.393 100.19 220.648 99.0165 221.484C97.8435 222.321 96.394 222.675 94.9674 222.474L58.0844 217.124C57.392 217.03 56.726 216.796 56.1268 216.437C55.5275 216.078 55.0077 215.6 54.5987 215.034C54.1898 214.467 53.9003 213.824 53.748 213.142C53.5956 212.46 53.5835 211.754 53.7124 211.068" fill="#FF704C"/>
<path d="M91.6977 162.134C91.6354 159.106 92.6992 156.163 94.6831 153.875C96.6669 151.587 99.4295 150.116 102.436 149.749L154.144 143.829C161.822 142.962 169.142 149.241 169.873 157.378L180.152 255.555L96.4783 260.088C95.8617 260.125 95.244 260.036 94.6635 259.824C94.083 259.613 93.5521 259.285 93.1038 258.86C92.6556 258.434 92.2994 257.922 92.0575 257.353C91.8156 256.785 91.6931 256.173 91.6977 255.555V162.134Z" fill="#FF704C"/>
<path d="M61.6637 64.4895C61.6637 76.6368 65.2658 88.5113 72.0145 98.6114C78.7632 108.712 88.3553 116.584 99.578 121.232C110.801 125.881 123.15 127.097 135.064 124.727C146.978 122.357 157.921 116.508 166.511 107.918C175.1 99.329 180.95 88.3854 183.319 76.4715C185.689 64.5576 184.473 52.2085 179.824 40.9858C175.176 29.7632 167.304 20.171 157.204 13.4223C147.103 6.67363 135.229 3.07153 123.082 3.07153C106.794 3.07482 91.1736 9.54667 79.6562 21.0641C68.1388 32.5814 61.667 48.2014 61.6637 64.4895Z" fill="black"/>
<path d="M169.253 10.8865C169.251 13.0427 169.888 15.1511 171.084 16.945C172.28 18.739 173.982 20.1379 175.973 20.9647C177.964 21.7915 180.156 22.0091 182.271 21.5899C184.386 21.1708 186.329 20.1338 187.855 18.61C189.38 17.0863 190.419 15.1443 190.841 13.0298C191.262 10.9152 191.047 8.7232 190.223 6.73096C189.398 4.73872 188.001 3.03581 186.209 1.83767C184.416 0.639533 182.308 8.43779e-06 180.152 7.04566e-06C178.722 -0.00162058 177.305 0.278767 175.982 0.825138C174.66 1.37151 173.459 2.17315 172.446 3.18422C171.434 4.19529 170.631 5.39596 170.083 6.71759C169.535 8.03921 169.253 9.45586 169.253 10.8865Z" fill="white"/>
<path d="M146.985 83.2281C146.953 79.7918 146.231 76.3969 144.862 73.2449C143.493 70.0929 141.505 67.2479 139.016 64.8788C136.526 62.5096 133.587 60.6646 130.371 59.4531C127.155 58.2416 123.729 57.6884 120.295 57.8262C106.547 58.3711 95.8715 70.0875 95.6485 83.835C95.4627 95.8733 95.5494 107.998 96.1935 112.321C98.1132 125.338 106.436 129.388 109.73 130.49C110.892 130.757 112.081 130.89 113.273 130.886C113.297 130.886 113.32 130.895 113.339 130.911C113.357 130.927 113.369 130.949 113.372 130.973L112.492 146.355C112.492 156.338 119.168 164.363 129.163 164.462C139.158 164.561 145.846 155.991 146.031 145.971L146.985 83.2281Z" fill="white"/>
<path d="M113.384 130.898C113.384 130.898 122.054 131.703 133.014 125.288C133.014 125.288 129.46 136.744 113.198 135.047L113.384 130.898Z" fill="black"/>
</svg>
